PathFileType	4	(X/Y/Z)	s08c0203.trc
DataRate	CameraRate	NumFrames	NumMarkers	Units	OrigDataRate	OrigDataStartFrame	OrigNumFrames
200	200	4	50	mm	200	1250	2000
Frame#	Time	racr			lacr			c7			jug			rlel			rdr			llel			ldr			s2			lic			ric			lasi			rasi			rpsi			lpsi			rgt			lgt			rth1			rth2			rth3			rth4			rlfc			rmfc			rsh1			rsh2			rsh3			rsh4			rlmal			rmmal			rcal			rtoe			rmt5			lth1			lth2			lth4			lth3			llfc			lmfc			llmal			lmmal			lcal			lmt5			lsh1			lsh2			lsh3			lsh4			ltoe			SBIKE			LBIKE			RBIKE			
		X1	Y1	Z1	X2	Y2	Z2	X3	Y3	Z3	X4	Y4	Z4	X5	Y5	Z5	X6	Y6	Z6	X7	Y7	Z7	X8	Y8	Z8	X9	Y9	Z9	X10	Y10	Z10	X11	Y11	Z11	X12	Y12	Z12	X13	Y13	Z13	X14	Y14	Z14	X15	Y15	Z15	X16	Y16	Z16	X17	Y17	Z17	X18	Y18	Z18	X19	Y19	Z19	X20	Y20	Z20	X21	Y21	Z21	X22	Y22	Z22	X23	Y23	Z23	X24	Y24	Z24	X25	Y25	Z25	X26	Y26	Z26	X27	Y27	Z27	X28	Y28	Z28	X29	Y29	Z29	X30	Y30	Z30	X31	Y31	Z31	X32	Y32	Z32	X33	Y33	Z33	X34	Y34	Z34	X35	Y35	Z35	X36	Y36	Z36	X37	Y37	Z37	X38	Y38	Z38	X39	Y39	Z39	X40	Y40	Z40	X41	Y41	Z41	X42	Y42	Z42	X43	Y43	Z43	X44	Y44	Z44	X45	Y45	Z45	X46	Y46	Z46	X47	Y47	Z47	X48	Y48	Z48	X49	Y49	Z49	X50	Y50	Z50	
1250	6.2500	551.475997	1338.642475	-87.649264	514.835534	1289.416209	-419.319406	515.014872	1391.610567	-254.246678	465.646229	1239.346324	-226.257856	560.358279	1116.318228	66.960753	740.050784	920.210514	-58.824270	506.853499	1030.169339	-527.621245	728.755137	911.252326	-412.920597	-42.547102	1196.479272	-180.610572	94.619837	1211.908801	-340.732651	132.056110	1189.695671	-22.227077	127.058981	1166.882059	-299.772070	148.756050	1125.687688	-62.881442	-3.774601	1227.973975	-123.514622	-16.155424	1245.123473	-215.675759	42.381515	1059.470984	-13.972648	75.126366	1123.076082	-382.404961	130.249984	908.078987	-14.707079	188.067734	840.596357	-23.130797	203.151713	756.327955	-38.275137	220.333610	857.013829	-31.694077	256.277519	651.610767	-59.788305	223.190902	637.207449	-164.221033	225.358267	522.586098	-24.816937	250.801347	438.579898	-44.093918	231.382339	354.376558	-49.300062	277.305668	444.427037	-73.401684	231.750527	230.288259	-58.171465	239.252820	256.236783	-147.505829	162.366977	182.366890	-102.983220	455.870760	244.027262	-107.812387	377.087470	191.042249	-40.495941	180.217079	1040.430107	-383.849390	262.962826	1013.553126	-374.089615	279.340879	1039.390883	-352.901700	323.463119	948.092407	-377.710167	394.136688	841.846514	-358.815743	389.430543	795.051090	-286.843499	76.185126	573.865016	-389.371980	109.131036	570.343688	-306.750617	2.092485	576.635878	-352.387082	164.417627	439.218716	-419.048939	302.943745	758.118124	-388.388056	250.169830	690.654314	-379.490576	170.438946	654.276595	-385.200322	267.577388	670.830005	-351.010363	250.815045	428.640118	-349.594054	-211.604391	915.773228	-234.585935	-10.477443	81.219191	-427.132654	-10.455066	79.905079	-28.738784	
1251	6.2550	552.421622	1340.842841	-90.522207	513.994956	1289.832355	-422.346565	514.827222	1392.490512	-257.804189	466.196761	1240.257024	-228.384150	562.451443	1118.611507	64.089841	739.926943	919.544982	-59.414008	506.411350	1028.661853	-527.685833	728.771070	911.800995	-412.932565	-41.309315	1196.751416	-177.844864	93.505981	1213.388342	-339.264906	135.547566	1188.748714	-21.189994	126.519241	1168.170858	-298.789878	150.368584	1124.281497	-62.024005	-1.871855	1228.091730	-120.819940	-15.699073	1245.967225	-212.289385	42.551085	1059.358785	-12.930382	75.031242	1127.075016	-380.939181	126.499050	906.220204	-12.524043	182.495710	837.255642	-20.619294	195.549266	752.611427	-35.035114	215.353640	852.953333	-29.234031	246.058844	646.633079	-57.225784	224.442727	639.350660	-173.876908	215.339907	517.681290	-22.172003	241.209164	433.720875	-42.204932	222.423019	349.418558	-47.889461	267.911877	439.774249	-71.236990	224.137509	225.321326	-57.541088	231.660717	251.859795	-146.708261	154.585590	178.546399	-102.690017	449.104194	235.518559	-107.690007	369.413872	183.745134	-40.338795	180.705008	1045.675722	-382.938189	263.914420	1020.370245	-373.376037	279.724878	1046.074888	-351.449189	325.664527	956.495115	-378.500932	398.773141	850.843498	-358.699444	392.942114	806.665208	-275.978818	82.743376	580.335701	-389.202578	115.725374	577.144273	-306.595576	8.733556	582.128592	-352.300285	172.325252	446.877701	-419.057826	308.235841	766.537281	-388.309948	256.005143	698.540775	-379.641336	176.445248	661.553310	-385.224993	273.523074	678.098663	-351.795842	258.855405	437.231011	-349.436041	-211.958956	916.214721	-235.134752	-10.470287	81.308992	-427.097797	-10.444050	79.913672	-28.712309	
1252	6.2600	553.397945	1343.143318	-93.602502	513.122277	1290.363610	-425.001136	514.540197	1393.373250	-261.244160	466.899963	1241.104688	-230.411852	564.494667	1120.905372	61.320344	739.660926	918.993923	-60.119201	505.851392	1027.532775	-527.945496	728.611923	912.140969	-412.812198	-40.355688	1197.641093	-175.275731	92.691012	1214.920577	-338.398714	138.659028	1187.755913	-20.593608	125.766053	1168.977774	-297.249604	151.444584	1123.092462	-61.480705	-0.054665	1227.997096	-119.227439	-15.236242	1246.863143	-209.255790	42.658853	1059.373920	-11.782077	75.017197	1130.907801	-379.534315	122.686866	904.772701	-10.322944	177.041024	834.482377	-17.928045	187.708310	749.173664	-31.942189	210.310210	849.284332	-26.816891	235.873203	642.259702	-54.767575	204.515146	627.946050	-160.213978	205.102252	513.228112	-20.097564	231.590737	429.577679	-40.274098	213.200404	345.157217	-46.590331	258.544814	435.886091	-69.067292	216.252861	220.947247	-56.962296	224.360365	247.789637	-145.898846	146.398025	175.578753	-102.519619	441.883646	227.563738	-107.417977	361.323635	177.066758	-40.176629	181.026143	1051.065557	-381.587831	264.817867	1027.204688	-372.700928	280.148844	1053.029257	-350.297802	327.603279	965.036359	-379.569453	403.057515	859.549843	-359.536706	394.847531	821.955032	-254.181617	89.961360	586.311943	-389.249245	122.555936	583.448901	-306.684952	15.421296	587.462013	-352.242330	180.829030	453.936658	-419.300504	313.682546	774.761270	-389.347926	262.023558	706.098656	-380.138738	182.814465	668.720283	-386.167083	279.952112	685.561490	-352.430094	267.335134	445.184112	-349.386760	-211.993723	916.339241	-234.745922	-10.475558	81.387639	-427.054544	-10.438155	79.907907	-28.699005	
1253	6.2650	554.380499	1345.386885	-96.626147	512.273527	1291.004051	-427.783256	514.225478	1394.144688	-264.427192	467.809645	1241.775974	-232.244009	566.402660	1123.167533	58.823701	739.478409	918.681847	-60.492506	505.277250	1026.666872	-528.325496	728.579544	912.637978	-413.058311	-39.912665	1198.141964	-172.901909	92.101193	1216.304664	-337.750616	141.247508	1186.912205	-20.409551	125.392999	1169.932743	-296.711058	152.724462	1122.125366	-60.920533	1.571897	1228.835695	-115.963535	-14.774572	1247.767570	-206.525039	42.662458	1059.459321	-10.654205	75.123158	1134.566276	-378.069126	118.885590	903.436641	-7.966146	171.942195	831.910909	-15.138174	180.253894	746.273327	-28.832952	205.014565	845.981765	-24.357480	225.955942	638.425931	-52.518885	195.909281	624.236488	-158.226116	194.690644	509.497070	-18.579011	221.925957	425.962125	-38.545527	203.854302	341.537635	-45.510520	249.124340	432.283180	-67.128765	208.135736	217.321453	-56.589466	216.897061	244.422361	-145.050057	137.932084	173.164215	-102.301729	434.266948	219.961582	-107.153087	352.804403	170.950272	-39.949232	181.163502	1056.469966	-379.888530	265.535266	1034.371637	-372.169177	280.596552	1060.518050	-349.757851	329.769473	973.119781	-379.436805	407.102577	868.192363	-360.729690	400.454349	829.295039	-257.130126	97.410011	591.357673	-389.590567	130.741022	588.774600	-305.795506	22.650593	591.785471	-352.797747	189.675894	460.334793	-419.356136	319.311224	782.407952	-390.464830	268.357015	713.265326	-380.901553	189.488807	675.168466	-386.778499	286.584912	692.816625	-353.562750	276.256916	452.637767	-349.657614	-212.228236	916.428990	-234.488977	-10.487844	81.460799	-427.035668	-10.445545	79.761139	-28.822154	
